<svg width="19" height="19" viewBox="0 0 19 19" fill="none" xmlns="http://www.w3.org/2000/svg">
<path d="M16.0777 15.9838C16.386 15.2986 16.5401 14.5363 16.5401 13.697C16.5401 12.2582 16.1463 11.0832 15.3587 10.1719C14.571 9.26066 13.2771 8.40218 11.4768 7.59644L10.1828 7.02092C9.20769 6.5605 8.46695 6.03774 7.96062 5.45262C7.45429 4.86751 7.20113 4.08576 7.20113 3.10737C7.20113 2.14816 7.5293 1.38559 8.18566 0.819664C8.72021 0.358752 9.35428 0.0855303 10.0879 0C15.011 0.323536 18.903 4.37337 18.903 9.32175C18.903 11.9302 17.8215 14.2889 16.0777 15.9838Z" fill="white"/>
<path d="M5.8922 0.664275C5.37797 1.02402 4.94696 1.4547 4.59916 1.95632C4.02719 2.78124 3.74121 3.75963 3.74121 4.89149C3.74121 6.46458 4.19597 7.72594 5.10549 8.67555C6.015 9.62516 7.27614 10.4645 8.88889 11.1935L10.0422 11.7114C11.0361 12.2102 11.7581 12.7234 12.2082 13.251C12.6582 13.7785 12.8833 14.5123 12.8833 15.4523C12.8833 16.4499 12.5504 17.2652 11.8847 17.8983C11.5816 18.1865 11.2289 18.4092 10.8266 18.5662C10.3777 18.6309 9.91855 18.6644 9.45148 18.6644C4.23157 18.6644 0 14.4815 0 9.32175C0 5.40658 2.43637 2.05389 5.8922 0.664275Z" fill="white"/>
</svg>
